<?xml version="1.0" encoding="UTF-8"?>
<svg id="Camada_1" xmlns="http://www.w3.org/2000/svg" version="1.1" viewBox="0 0 171.65 171.06">
  <!-- Generator: Adobe Illustrator 30.5.1, SVG Export Plug-In . SVG Version: 2.1.4 Build 3)  -->
  <defs>
    <style>
      .st0 {
        fill: #003d38;
      }
    </style>
  </defs>
  <path class="st0" d="M163.37,85c-13.22-1.62-24.7-.6-34.59,1.85-1.22-1.19-2.41-2.37-3.84-3.28,17.47-24.56,21.4-49.56,21.63-51.13l1.44-10.02-8.73,5.12c-24.25,14.21-38.84,32.26-47.62,48.13v-3.8c1.37-17.37-.61-38.92-11.27-62.62l-4.16-9.24-4.63,9.01c-.49.95-5.75,11.45-9.16,27.34-10.44,2.56-18.06,11.31-18.06,22.34v20.75h-20.73c-6.33,0-12.27,2.45-16.72,6.91-4.48,4.47-6.94,10.41-6.94,16.72,0,13.04,10.61,23.65,23.66,23.65h20.73v20.72c0,6.3,2.45,12.24,6.92,16.73,4.47,4.45,10.42,6.9,16.73,6.9,13.03,0,23.63-10.6,23.63-23.63v-20.72h20.72c4.67,0,9.21-1.73,13.33-4.67,25.5-8.9,40.13-28.14,41-29.32l4.94-6.72-8.28-1ZM134.11,42.53c-3.16,10.39-9.66,26.26-21.7,41.07-2.58,3.16-5.31,6.11-8.17,8.88-.8.78-1.57,1.57-2.41,2.33-3.54,3.22-7.23,6.22-11.16,8.87.5-1.74,1.1-3.66,1.82-5.72.02-.06.04-.12.06-.18.61-1.73,1.36-3.62,2.15-5.54.29-.72.61-1.45.93-2.19,6.24-14.29,17.66-32.48,38.47-47.52ZM81.04,78.15c0,.05-.01.12-.02.17-.41,2.87-.91,5.58-1.46,8.11,0,.02,0,.05-.01.07-.49,2.24-1.03,4.29-1.58,6.24-.08.29-.15.63-.23.91-.31,1.09-.63,1.98-.95,2.97-.31.95-.62,2-.92,2.86-1.88-4.99-3.14-9.9-4.15-14.74-.26-1.28-.5-2.55-.71-3.82-.66-3.97-1.11-7.86-1.31-11.62-.04-.78-.16-1.6-.18-2.38-.14-4.24,0-8.27.3-12.11.12-1.55.29-3.03.46-4.53.26-2.28.56-4.48.91-6.56,1.28-7.59,3.05-14.24,4.74-19.27,6.99,20.63,7.17,39.21,5.12,53.7ZM68.04,161.31c-3.72,0-7.22-1.45-9.84-4.04-2.62-2.63-4.06-6.13-4.06-9.84v-30.47h-30.48c-7.66,0-13.91-6.23-13.91-13.9,0-3.71,1.45-7.2,4.08-9.83s6.1-4.05,9.83-4.05h30.48v-30.5c0-4.9,2.57-9.14,6.5-11.56-1.9,14.58-1.59,32.09,4.31,50.45.19.61.42,1.21.62,1.82,1.64,4.81,3.55,9.65,6.04,14.51l4.12,8.04h0s.02.04.02.04l2.47-4.41-.46,4.5h0s0,0,0,0l1.17-.61.73-.38-1.88,2.81h.03s0,0,0,0l4.1.74v22.79c0,7.65-6.23,13.88-13.88,13.88ZM120.69,113.3c-3.19,1.02-6.41,1.78-9.67,2.33-1.08.19-2.16.38-3.28.51-3.98.47-7.98.72-12.03.51-.02,0-.05,0-.07,0,6.09-6.14,17.14-15.06,33.22-19.63l2.88-.82c5.74-1.37,12.07-2.23,19.07-2.23.55,0,1.09,0,1.65.02-6.31,6.12-17.24,14.62-31.77,19.31Z"/>
</svg>