<?xml version="1.0" encoding="UTF-8"?>
<svg id="Camada_1" xmlns="http://www.w3.org/2000/svg" version="1.1" viewBox="0 0 175.1 175.14">
  <!-- Generator: Adobe Illustrator 30.5.1, SVG Export Plug-In . SVG Version: 2.1.4 Build 3)  -->
  <defs>
    <style>
      .st0 {
        fill: #003d38;
      }
    </style>
  </defs>
  <path class="st0" d="M110.69,82.06c3.43,0,6.2-2.77,6.2-6.2v-23.22c0-3.43-2.77-6.2-6.2-6.2s-6.21,2.77-6.21,6.2v23.22c0,3.43,2.78,6.2,6.21,6.2Z"/>
  <path class="st0" d="M87.55,0C39.28,0,0,39.28,0,87.58s39.28,87.56,87.55,87.56,87.55-39.28,87.55-87.56S135.84,0,87.55,0ZM87.55,162.74c-41.43,0-75.14-33.72-75.14-75.16S46.12,12.4,87.55,12.4s75.15,33.74,75.15,75.18-33.72,75.16-75.15,75.16Z"/>
  <path class="st0" d="M64.25,82.06c3.43,0,6.21-2.77,6.21-6.2v-23.22c0-3.43-2.78-6.2-6.21-6.2s-6.21,2.77-6.21,6.2v23.22c0,3.43,2.78,6.2,6.21,6.2Z"/>
  <path class="st0" d="M115.09,112.54c-16.17,19.55-41.51,19.54-57.65,0-2.19-2.65-6.1-3.03-8.74-.83-2.65,2.18-3.02,6.1-.84,8.73,10.47,12.68,24.11,19.66,38.4,19.66s27.9-6.96,38.4-19.62c2.18-2.65,1.82-6.56-.81-8.75-2.65-2.16-6.55-1.82-8.75.81Z"/>
</svg>