<?xml version="1.0" encoding="UTF-8"?>
<svg id="Camada_1" xmlns="http://www.w3.org/2000/svg" version="1.1" viewBox="0 0 176.34 111">
  <!-- Generator: Adobe Illustrator 30.5.1, SVG Export Plug-In . SVG Version: 2.1.4 Build 3)  -->
  <defs>
    <style>
      .st0 {
        fill: #003d38;
      }
    </style>
  </defs>
  <path class="st0" d="M90.36,34.17c-.28,0-.55,0-.82,0-.23,0-.43.06-.66.06-.24,0-.47-.07-.71-.07-2.82,0-5.55.35-8.2.93C39.62,39.62,11.12,68.19,9.85,69.51c-1.68,1.75-1.65,4.5.05,6.22,23.41,23.41,49,35.28,76.07,35.28h.82c.24,0,.46-.06.7-.07.23,0,.44.07.67.07,2.8,0,5.52-.34,8.15-.91,40.38-4.5,68.89-33.1,70.16-34.42,1.68-1.75,1.66-4.5-.05-6.22-23.41-23.41-49.01-35.29-76.07-35.29ZM94.17,101.52c-2.21.22-4.38.51-6.66.55-15.99-.36-28.9-13.41-28.9-29.48,0-14.24,10.12-26.15,23.55-28.93,2.22-.22,4.4-.51,6.69-.55,15.97.37,28.87,13.42,28.87,29.48,0,14.24-10.12,26.14-23.54,28.93ZM57.72,49.43c-4.93,6.46-7.97,14.43-7.97,23.16,0,9.29,3.45,17.72,8.97,24.37-13.54-4.72-26.76-12.54-39.25-24.32,5.95-5.28,19.84-16.21,38.25-23.22ZM118.59,95.77c4.94-6.46,7.99-14.44,7.99-23.18,0-9.34-3.48-17.8-9.04-24.47,13.59,4.72,26.78,12.58,39.33,24.41-5.95,5.3-19.83,16.24-38.28,23.23Z"/>
  <path class="st0" d="M103.32,58.2c-3.83-4.04-9.16-6.62-15.15-6.62-11.58,0-21,9.42-21,21.01s9.42,21.01,21,21.01,20.99-9.42,20.99-21.01c0-3.52-1.09-6.69-2.62-9.61-.72-1.83-1.82-3.45-3.22-4.78ZM97.56,65.21c.59.77,1.11,1.62,1.11,2.67,0,2.53-2.05,4.57-4.57,4.57s-4.56-2.04-4.56-4.57,2.04-4.56,4.56-4.56c1.18,0,2.22.52,3.03,1.25.17.19.27.44.43.64Z"/>
  <path class="st0" d="M19.95,54.73c1.11,0,2.22-.42,3.08-1.25,1.76-1.7,1.81-4.5.1-6.27L7.62,31.13c-1.68-1.75-4.49-1.79-6.27-.1-1.76,1.7-1.81,4.5-.1,6.27l15.52,16.08c.87.9,2.03,1.35,3.19,1.35Z"/>
  <path class="st0" d="M174.99,31.03c-1.77-1.69-4.57-1.65-6.27.1l-15.52,16.08c-1.7,1.77-1.66,4.57.1,6.27.87.83,1.97,1.25,3.08,1.25s2.32-.45,3.19-1.35l15.52-16.08c1.7-1.77,1.66-4.57-.1-6.27Z"/>
  <path class="st0" d="M37.4,40.12c.87,1.18,2.21,1.8,3.57,1.8.92,0,1.84-.28,2.63-.87,1.97-1.45,2.39-4.23.94-6.2l-12.94-17.57c-1.45-1.97-4.23-2.39-6.2-.94-1.97,1.45-2.39,4.23-.94,6.2l12.94,17.57Z"/>
  <path class="st0" d="M135.36,41.92c1.35,0,2.7-.62,3.57-1.8l12.94-17.57c1.45-1.97,1.04-4.75-.94-6.2-1.96-1.45-4.75-1.03-6.2.94l-12.94,17.57c-1.45,1.97-1.04,4.75.94,6.2.8.59,1.71.87,2.63.87Z"/>
  <path class="st0" d="M63.27,33.14c.37,0,.75-.04,1.13-.15,2.36-.63,3.78-3.06,3.15-5.42l-5.17-19.51c-.63-2.37-3.03-3.83-5.42-3.15-2.36.63-3.78,3.06-3.15,5.42l5.17,19.51c.53,1.99,2.32,3.3,4.29,3.3Z"/>
  <path class="st0" d="M111.91,32.99c.38.1.76.15,1.14.15,1.96,0,3.76-1.31,4.28-3.3l5.18-19.51c.64-2.36-.78-4.79-3.13-5.42-2.34-.59-4.8.78-5.42,3.15l-5.18,19.51c-.64,2.36.78,4.79,3.13,5.42Z"/>
  <path class="st0" d="M88.17,29.42c2.45,0,4.43-1.98,4.43-4.43V4.43c0-2.45-1.98-4.43-4.43-4.43s-4.43,1.98-4.43,4.43v20.55c0,2.45,1.98,4.43,4.43,4.43Z"/>
</svg>