<?xml version="1.0" encoding="UTF-8"?>
<svg id="Camada_1" xmlns="http://www.w3.org/2000/svg" version="1.1" viewBox="0 0 145.06 143">
  <!-- Generator: Adobe Illustrator 30.5.1, SVG Export Plug-In . SVG Version: 2.1.4 Build 3)  -->
  <defs>
    <style>
      .st0 {
        fill: #003d38;
      }
    </style>
  </defs>
  <path class="st0" d="M139.86,115.22l-17.25-17.3c-8.17-8.21-17.25-17.3-22.98-23.05,6.56-.66,12.71-3.52,17.32-8.14l23.8-23.81c4.78-5.02,4.71-12.78-.16-17.63-1.92-1.94-4.47-3.22-7.17-3.65-.43-2.7-1.71-5.26-3.65-7.2-1.94-1.92-4.5-3.2-7.2-3.64-.45-2.68-1.77-5.33-3.64-7.2-3.1-3.07-11.5-6.23-17.77,0l-23.68,23.71c-4.5,4.5-7.41,10.74-8.17,17.21l-30.35-30.43c-4.85-4.81-10.03-7.45-14.67-7.45-.18,0-.36,0-.53.02-6.8.29-11.99,4.19-14.63,11-4.52,11.64-.4,28.42,9.39,38.19l22.56,22.57c-6.14,6.15-32.93,32.94-36.52,36.54-2.76,2.75-4.55,7.41-4.55,11.86s1.57,8.12,4.52,11.07c6.92,6.91,17.41,4.69,23.55-1.47,2.59-2.58,12.67-12.63,21.91-21.82,10.54-10.5,14.5-14.44,16.01-15.95,3.91,1.61,10.3,3.57,14.92,2.79l36.39,36.39c3.45,3.45,7.83,5.2,12.14,5.2,4.02,0,7.98-1.52,11.03-4.59,6.34-6.32,6.08-16.52-.61-23.19ZM112.38,14.01c-1.04,1.06-22.42,22.44-22.41,22.43-1.29,1.28-1.99,2.79-1.99,4.23,0,1.21.49,2.36,1.42,3.27.92.92,2.04,1.42,3.27,1.42,1.45,0,2.96-.71,4.23-1.99l2.53-2.51c5.75-5.75,19.09-19.07,19.88-19.88.43-.35,2.3-.31,3.27.66.52.54.83,1.3.81,2.08,0,.36-.07,1.04-.59,1.56l-22.01,22.01c-2.42,2.48-2.65,5.42-.57,7.48,2.06,2.06,5.16,1.82,7.5-.55l22.05-21.98c.35-.33.94-.54,1.59-.54.8,0,1.56.29,2.06.78.92.94.92,2.46,0,3.41,0,0-17.77,17.77-23.66,23.67-5.61,5.61-14.31,6.36-19.74,4.21-4.2-1.7-8.43-7.24-9.86-10.6-2.38-5.56-.4-13.77,4.52-18.69l23.65-23.71c.38-.36,1.07-.73,1.78-.73.59,0,1.11.24,1.63.76,1.42,1.4.78,3.03.64,3.2ZM48.26,85.59c2,1.99,5.81,5.73,8.45,7.86-6.7,6.68-34.07,34.01-35.83,35.75v.02c-1.04,1.04-4.04,2.98-6.63,2.81-1.02-.05-1.81-.45-2.42-1.18-2.72-3.38-1.67-7.19-.09-8.73l36.52-36.52ZM133.2,131.32c-.85,1-1.94,1.54-3.26,1.59-.07.02-.14.02-.23.02-1.78,0-3.81-.9-5.25-2.32l-39.99-40.01-.94-.95-1.17.64c-6.29,3.45-18.28-3.27-21.8-6.77L25.71,48.66c-8.03-8.04-9.88-20.54-6.99-27.52.82-1.97,2.37-4.33,5.12-4.33,2.26,0,5,1.56,7.91,4.47,11.58,11.57,100.92,101.11,100.92,101.11,2.77,2.79,2.96,6.04.52,8.94Z"/>
</svg>