<?xml version="1.0" encoding="UTF-8"?>
<svg id="Camada_1" xmlns="http://www.w3.org/2000/svg" version="1.1" viewBox="0 0 126.92 150.29">
  <!-- Generator: Adobe Illustrator 30.5.1, SVG Export Plug-In . SVG Version: 2.1.4 Build 3)  -->
  <defs>
    <style>
      .st0 {
        fill: #003d38;
      }
    </style>
  </defs>
  <path class="st0" d="M118.06,116.3c1.84-1.04,3.7-2.02,5.42-3.62,2.32-2.13,3.57-5.16,3.43-8.32-.16-3.23-1.7-6.21-4.28-8.18l-14.13-10.76c-1.09-4.64-3.69-15.84-4.07-17.87-1.28-7.08-5.21-12.29-11.71-15.47-2-.98-6.33-2.79-11.33-4.46,3.97-4.36,6.43-10.18,6.43-16.71v-6.29c0-13.79-10.7-24.61-24.37-24.61s-24.38,10.82-24.38,24.61v6.29c0,6.53,2.45,12.34,6.43,16.7-5,1.67-9.33,3.48-11.33,4.46-6.49,3.19-10.43,8.39-11.72,15.47-.37,2.05-2.97,13.23-4.05,17.87l-14.12,10.76C1.73,98.13.16,101.1.01,104.33c-.16,3.16,1.08,6.2,3.39,8.34,1.74,1.61,3.6,2.58,5.45,3.63-.2.14-.52.34-.7.48-6.83,5.04-9.34,13.71-6.12,21.09,1.77,4.04,5.44,12.43,18.34,12.43h8.21c3.19,0,5.77-2.58,5.77-5.77s-2.58-5.77-5.77-5.77h-8.21c-5.14,0-6.1-1.69-7.78-5.52-.89-2.03-.49-5.05,2.39-7.18,3.48-2.55,9.74-6.47,15.45-9.94.08-.05.17-.06.26-.12.02-.02.02-.05.05-.07,6.34-3.84,11.92-7.08,12.02-7.14,1.47-.86,2.49-2.33,2.79-4.01l4.04-23.45c.54-3.13-1.57-6.12-4.7-6.66-3.14-.6-6.12,1.56-6.66,4.7l-3.58,20.8c-2.35,1.38-6.27,3.71-10.42,6.23-2.83,1.72-7.17,3.23-12.95-1.08l15.77-12.02c1.07-.81,1.82-1.97,2.12-3.26,0,0,4.16-17.79,4.64-20.45.63-3.47,2.26-5.62,5.44-7.18,4.77-2.33,17.17-6.9,24.21-6.9s19.28,4.49,24.19,6.89c3.19,1.57,4.81,3.71,5.46,7.2.48,2.67,4.64,20.44,4.64,20.44.31,1.3,1.06,2.46,2.11,3.26l15.81,10.89c-6.43,5.94-10.99,3.47-12.94,2.23-4.16-2.53-8.11-4.88-10.46-6.26l-3.58-20.8c-.54-3.12-3.39-5.26-6.65-4.7-3.14.54-5.25,3.52-4.71,6.66l4.04,23.45c.29,1.68,1.32,3.15,2.79,4.01.11.06,5.69,3.3,12.03,7.14.02.01.02.05.04.06.08.05.16.06.23.11,5.72,3.47,11.99,7.39,15.47,9.95,2.89,2.13,3.29,5.14,2.39,7.18-1.68,3.84-2.63,5.52-7.78,5.52h-56.22c-3.78,0-4.55-2.66-4.68-4.24-.03-.47-.25-4.66,3.84-5.31l25.52-3.98c3.14-.49,5.29-3.44,4.81-6.59-.5-3.14-3.43-5.33-6.59-4.81l-25.54,3.99c-9.68,1.55-14.13,10.04-13.53,17.61.7,8.75,7.35,14.86,16.18,14.86h56.22c12.9,0,16.57-8.4,18.34-12.43,3.22-7.38.71-16.05-6.13-21.09-.18-.14-.5-.33-.69-.47ZM50.62,30.9v-6.29c0-7.46,5.52-13.08,12.84-13.08s12.83,5.62,12.83,13.08v6.29c0,7.46-5.52,13.08-12.83,13.08s-12.84-5.62-12.84-13.08Z"/>
</svg>