<?xml version="1.0" encoding="UTF-8"?>
<svg id="Camada_1" xmlns="http://www.w3.org/2000/svg" version="1.1" viewBox="0 0 150.37 126.82">
  <!-- Generator: Adobe Illustrator 30.5.1, SVG Export Plug-In . SVG Version: 2.1.4 Build 3)  -->
  <defs>
    <style>
      .st0 {
        fill: #003d38;
      }
    </style>
  </defs>
  <path class="st0" d="M149.52,47.37c-.69-.95-1.73-1.58-2.89-1.77l-52.6-8.23c-2.49-.4-4.69,1.26-5.07,3.69l-2.16,13.84c-.18,1.18.1,2.36.8,3.31s1.74,1.58,2.9,1.77l26.4,4.12-35.07,29.63c-.82.69-1.36,1.66-1.52,2.7l-2.6,16.61c-.18,1.18.1,2.36.8,3.31s1.74,1.58,2.9,1.77l55.36,8.66c.24.03.47.05.69.05,2.15,0,4.04-1.56,4.38-3.74l2.16-13.84c.17-1.18-.1-2.36-.8-3.31s-1.73-1.58-2.89-1.77l-29.18-4.55,35.07-29.63c.81-.69,1.35-1.66,1.52-2.7l2.6-16.61c.17-1.18-.1-2.36-.8-3.31ZM139.22,64.27l-41.22,34.83c-1.33,1.13-1.89,2.93-1.4,4.59.47,1.68,1.85,2.91,3.57,3.19l34.39,5.37-.8,5.09-46.61-7.29,1.65-10.6,41.22-34.83c1.33-1.13,1.89-2.93,1.42-4.59-.48-1.68-1.87-2.91-3.58-3.19l-31.62-4.94.8-5.09,43.85,6.86-1.66,10.6Z"/>
  <path class="st0" d="M55.32,84.06c.2.03.39.16.59.16.37,0,.74-.05,1.11-.14l40.75-10.48c2.37-.61,3.79-3.03,3.19-5.4-.62-2.36-2.93-3.72-5.4-3.19l-36.45,9.37-2.84-11.07,22.42-37.94c.91-1.54.81-3.48-.28-4.92-1.07-1.44-2.9-2.04-4.64-1.63l-27.15,6.96-1.46-5.7,40-10.27,2.84,11.07-22.42,37.94c-.91,1.54-.81,3.48.28,4.92,1.07,1.42,2.9,2.03,4.64,1.63l10.65-2.74c2.37-.61,3.8-3.03,3.2-5.4-.61-2.36-3.07-3.74-5.39-3.19l-.29.07,17.91-30.31c.61-1,.78-2.22.48-3.36l-4.41-17.15c-.61-2.36-3.07-3.74-5.39-3.19l-48.58,12.49c-2.37.61-3.8,3.03-3.2,5.4l3.67,14.29c.61,2.36,3.06,3.72,5.39,3.19l21.08-5.4-17.92,30.31c-.6,1-.77,2.22-.48,3.36l4.4,17.15c.26.98.96,1.75,1.77,2.35-.51-.13-.95-.48-1.5-.43l-17.6,1.99,10.94-15.31c1.42-1.99.96-4.76-1.03-6.18-2-1.45-4.77-.97-6.19,1.02l-16.72,23.41c-1.01,1.44-1.1,3.33-.21,4.83.88,1.52,2.52,2.32,4.32,2.15l23.09-2.62.39,3.41-33.97,3.84-1.04-9.18,23.06-32.28c1.01-1.42,1.1-3.33.21-4.83-.87-1.51-2.47-2.34-4.32-2.15l-23.09,2.62-.39-3.41,33.97-3.84.03.26c.28,2.44,2.42,4.07,4.91,3.9,2.43-.28,4.18-2.46,3.91-4.9l-.53-4.66c-.29-2.44-2.63-4.19-4.9-3.9L3.94,41.82c-1.17.12-2.24.71-2.97,1.63-.74.94-1.07,2.1-.94,3.27l1.39,12.23c.14,1.16.73,2.23,1.65,2.96.93.74,2.04,1.07,3.26.94l17.6-1.99-18.26,25.56c-.63.9-.92,1.99-.8,3.08l1.73,15.27c.26,2.27,2.17,3.93,4.4,3.93.17,0,.34-.02.5-.03l42.78-4.83c1.17-.12,2.24-.71,2.97-1.63.74-.94,1.07-2.1.94-3.27l-1.39-12.23c-.12-1.04-.71-1.94-1.48-2.66Z"/>
</svg>