<?xml version="1.0" encoding="UTF-8"?>
<svg id="Camada_1" xmlns="http://www.w3.org/2000/svg" version="1.1" viewBox="0 0 180 141.65">
  <!-- Generator: Adobe Illustrator 30.5.1, SVG Export Plug-In . SVG Version: 2.1.4 Build 3)  -->
  <defs>
    <style>
      .st0 {
        fill: #003d38;
      }
    </style>
  </defs>
  <path class="st0" d="M171.67,75.03c-16.8-1.15-30.29,2.08-41.33,6.8,18.87-25.44,22.4-52.48,22.59-54.09l1.19-10.05-8.61,5.33c-18.72,11.61-31.19,25.5-39.57,38.64.16-15.22-2.52-33.07-11.23-52.42l-4.16-9.24-4.63,9.01c-.7,1.38-11.79,23.62-11.59,53.11-8.38-13.27-20.94-27.35-39.86-39.09l-8.61-5.33,1.19,10.05c.19,1.61,3.7,28.64,22.57,54.08-11.04-4.71-24.52-7.93-41.32-6.79l-8.31.58,4.57,6.96c1.02,1.56,23.54,34.71,64.67,35.9l-17.93,10.57c-2.32,1.37-3.09,4.36-1.72,6.68.91,1.54,2.54,2.4,4.21,2.4.84,0,1.69-.22,2.47-.68l28.26-16.66c.31-.18.35-.56.6-.79v16.78c0,2.69,2.18,4.88,4.88,4.88s4.88-2.18,4.88-4.88v-15.99l27.18,15.21c.74.42,1.56.61,2.37.61,1.7,0,3.36-.9,4.26-2.49,1.32-2.35.47-5.33-1.89-6.63l-16.07-9c41.14-1.18,63.66-34.35,64.68-35.91l4.59-6.96-8.33-.58ZM140.67,38.2c-4.23,15-14.82,41.29-39.82,59.18,3.63-13.89,13.52-39,39.82-59.18ZM90.25,24.53c10.47,31.31,4.68,57.7-.05,71.29-10.71-28.79-4.82-56.5.05-71.29ZM79.11,97.36c-24.97-17.88-35.57-44.15-39.8-59.14,26.19,20.11,36.13,45.23,39.8,59.14ZM18.7,84.6c28.16,1.06,45.18,15.48,53.01,24.32h-.23c-26.19,0-44.1-14.94-52.79-24.32ZM108.51,108.92h-.23c7.85-8.84,24.85-23.27,53.01-24.32-8.68,9.39-26.6,24.32-52.79,24.32Z"/>
</svg>